<?xml version="1.0" encoding="UTF-8"?>
<svg width="22px" height="21px" viewBox="0 0 22 21" version="1.1" xmlns="http://www.w3.org/2000/svg" xmlns:xlink="http://www.w3.org/1999/xlink">
    <!-- Generator: Sketch 57.1 (83088) - https://sketch.com -->
    <title>rili</title>
    <desc>Created with Sketch.</desc>
    <g id="Page-1" stroke="none" stroke-width="1" fill="none" fill-rule="evenodd">
        <g id="iPhone-8-Copy" transform="translate(-326.000000, -81.000000)" fill="#1E1E1E" fill-rule="nonzero">
            <g id="Group" transform="translate(177.000000, 74.000000)">
                <g id="rili" transform="translate(149.000000, 7.000000)">
                    <path d="M17.9259259,1.61538462 L15.0740741,1.61538462 L15.0740741,0.807692308 C15.0740741,0.363461538 14.7074074,0 14.2592593,0 C13.8111111,0 13.4444444,0.363461538 13.4444444,0.807692308 L13.4444444,1.61538462 L8.55555556,1.61538462 L8.55555556,0.807692308 C8.55555556,0.363461538 8.18888889,0 7.74074074,0 C7.29259259,0 6.92592593,0.363461538 6.92592593,0.807692308 L6.92592593,1.61538462 L4.07407407,1.61538462 C1.83333333,1.61538462 0,3.43269231 0,5.65384615 L0,16.9615385 C0,19.1826923 1.83333333,21 4.07407407,21 L17.9259259,21 C20.1666667,21 22,19.1826923 22,16.9615385 L22,5.65384615 C22,3.43269231 20.1666667,1.61538462 17.9259259,1.61538462 Z M4.07407407,3.23076923 L6.92592593,3.23076923 L6.92592593,4.03846154 C6.92592593,4.48269231 7.29259259,4.84615385 7.74074074,4.84615385 C8.18888889,4.84615385 8.55555556,4.48269231 8.55555556,4.03846154 L8.55555556,3.23076923 L13.4444444,3.23076923 L13.4444444,4.03846154 C13.4444444,4.48269231 13.8111111,4.84615385 14.2592593,4.84615385 C14.7074074,4.84615385 15.0740741,4.48269231 15.0740741,4.03846154 L15.0740741,3.23076923 L17.9259259,3.23076923 C19.2703704,3.23076923 20.3703704,4.32115385 20.3703704,5.65384615 L20.3703704,6.46153846 L1.62962963,6.46153846 L1.62962963,5.65384615 C1.62962963,4.32115385 2.72962963,3.23076923 4.07407407,3.23076923 Z M17.9259259,19.3846154 L4.07407407,19.3846154 C2.72962963,19.3846154 1.62962963,18.2942308 1.62962963,16.9615385 L1.62962963,8.07692308 L20.3703704,8.07692308 L20.3703704,16.9615385 C20.3703704,18.2942308 19.2703704,19.3846154 17.9259259,19.3846154 Z" id="Shape"></path>
                    <path d="M5.8125,14.2857143 L7.4375,14.2857143 C7.884375,14.2857143 8.25,14.6714286 8.25,15.1428571 C8.25,15.6142857 7.884375,16 7.4375,16 L5.8125,16 C5.365625,16 5,15.6142857 5,15.1428571 C5,14.6714286 5.365625,14.2857143 5.8125,14.2857143 Z M10.6875,14.2857143 L12.3125,14.2857143 C12.759375,14.2857143 13.125,14.6714286 13.125,15.1428571 C13.125,15.6142857 12.759375,16 12.3125,16 L10.6875,16 C10.240625,16 9.875,15.6142857 9.875,15.1428571 C9.875,14.6714286 10.240625,14.2857143 10.6875,14.2857143 Z M15.5625,14.2857143 L17.1875,14.2857143 C17.634375,14.2857143 18,14.6714286 18,15.1428571 C18,15.6142857 17.634375,16 17.1875,16 L15.5625,16 C15.115625,16 14.75,15.6142857 14.75,15.1428571 C14.75,14.6714286 15.115625,14.2857143 15.5625,14.2857143 Z M5.8125,10 L7.4375,10 C7.884375,10 8.25,10.3857143 8.25,10.8571429 C8.25,11.3285714 7.884375,11.7142857 7.4375,11.7142857 L5.8125,11.7142857 C5.365625,11.7142857 5,11.3285714 5,10.8571429 C5,10.3857143 5.365625,10 5.8125,10 Z M10.6875,10 L12.3125,10 C12.759375,10 13.125,10.3857143 13.125,10.8571429 C13.125,11.3285714 12.759375,11.7142857 12.3125,11.7142857 L10.6875,11.7142857 C10.240625,11.7142857 9.875,11.3285714 9.875,10.8571429 C9.875,10.3857143 10.240625,10 10.6875,10 Z M15.5625,10 L17.1875,10 C17.634375,10 18,10.3857143 18,10.8571429 C18,11.3285714 17.634375,11.7142857 17.1875,11.7142857 L15.5625,11.7142857 C15.115625,11.7142857 14.75,11.3285714 14.75,10.8571429 C14.75,10.3857143 15.115625,10 15.5625,10 Z" id="Shape"></path>
                </g>
            </g>
        </g>
    </g>
</svg>