<?xml version="1.0" encoding="UTF-8"?>
<svg width="20px" height="20px" viewBox="0 0 20 20" version="1.1" xmlns="http://www.w3.org/2000/svg" xmlns:xlink="http://www.w3.org/1999/xlink">
    <!-- Generator: Sketch 57.1 (83088) - https://sketch.com -->
    <title>pengyouquan</title>
    <desc>Created with Sketch.</desc>
    <g id="Page-1" stroke="none" stroke-width="1" fill="none" fill-rule="evenodd">
        <g id="iPhone-8-Copy" transform="translate(-22.000000, -82.000000)" fill="#000000" fill-rule="nonzero">
            <g id="pengyouquan" transform="translate(22.000000, 82.000000)">
                <path d="M10.58125,6.08666016 L5.54583984,1.06875 C5.35333984,1.16458984 5.16416016,1.265 4.98,1.37167969 C4.23833984,1.79625 3.53957031,2.32083984 2.90832031,2.94958984 C2.63541016,3.22 2.3875,3.50375 2.15625,3.79375 C1.5875,4.50708984 1.13041016,5.28 0.785839844,6.08833984 C0.785839844,6.08833984 10.2775,6.03833984 10.58125,6.08666016 Z M7.65083984,6.8 L0.529160156,6.8 C0.460410156,6.99916016 0.399589844,7.20458984 0.342910156,7.41125 C0.120839844,8.2325 0,9.09542969 0,9.9875 C0,10.36875 0.02375,10.7441602 0.0670898438,11.1133398 C0.169589844,12.0191602 0.39625,12.88625 0.7275,13.6995898 C0.7275,13.6995898 7.40166016,6.9775 7.65083984,6.8 Z M18.95,5.51625 C18.8554102,5.3275 18.7545898,5.13875 18.6475,4.95333984 C18.22,4.21666016 17.695,3.51958984 17.0620898,2.89041016 C16.7916602,2.62125 16.5079102,2.37166016 16.2154102,2.14083984 C15.4991602,1.57458984 14.7245898,1.11875 13.9133398,0.77625 C13.9133398,0.77625 13.96375,10.2320898 13.9133398,10.5333398 L18.95,5.51625 Z M13.2141602,7.62375 L13.2141602,0.52875 C13.0129102,0.460839844 12.8066602,0.39875 12.6,0.34125 C11.7766602,0.12125 10.91,0 10.0141602,0 C9.63125,0 9.255,0.02375 8.88375,0.0666601562 C7.97583984,0.169160156 7.10542969,0.395839844 6.28667969,0.72375 C6.28667969,0.72375 13.0329102,7.37625 13.2141602,7.62375 Z M6.07708984,9.41582031 L1.04333984,14.4337695 C1.13666016,14.6258594 1.23958984,14.8120898 1.34583984,14.9979297 C1.77125,15.7358594 2.29791016,16.4329297 2.93125,17.0625195 C3.20125,17.3321094 3.48541016,17.5796094 3.77792969,17.8121094 C4.49416016,18.3796094 5.26708984,18.8333594 6.08,19.1754297 C6.08,19.1750195 6.02833984,9.71917969 6.07707031,9.41582031 L6.07708984,9.41582031 Z M9.37,13.9508398 L14.4066602,18.96875 C14.5980867,18.8728584 14.7869047,18.7718454 14.9729102,18.6658203 C15.7108398,18.2420898 16.4091602,17.71875 17.0433398,17.0870898 C17.3125,16.8183398 17.5616602,16.53625 17.795,16.2441602 C18.3625,15.5304102 18.8208398,14.76 19.1641602,13.95 C19.1633398,13.95 9.67416016,14.0016602 9.37,13.9508398 L9.37,13.9508398 Z M19.9325,8.89042969 C19.82875,7.98583984 19.60375,7.11791016 19.2729297,6.30332031 C19.2729297,6.30332031 12.5975,13.025 12.3479297,13.2045898 L19.4695898,13.2045898 C19.5374165,13.0024332 19.599247,12.7983139 19.655,12.5925 C19.8783398,11.7704297 20,10.91 20,10.0175 C20,9.63583984 19.9754102,9.26 19.9325,8.89041016 L19.9325,8.89042969 Z M6.78625,12.375 L6.78625,19.4708398 C6.98833984,19.5391602 7.19375,19.6008398 7.4,19.65625 C8.22458984,19.88 9.09,20 9.98583984,20 C10.3675,20 10.7445898,19.97625 11.1141602,19.9329102 C12.0233398,19.83 12.8925,19.60625 13.71,19.2766602 C13.71125,19.2766602 6.96583984,12.625 6.78625,12.375 Z" id="Shape"></path>
            </g>
        </g>
    </g>
</svg>